<?xml version="1.0" encoding="UTF-8" standalone="no"?>
<!-- Generator: Adobe Illustrator 26.0.1, SVG Export Plug-In . SVG Version: 6.00 Build 0)  -->

<svg
   version="1.1"
   x="0px"
   y="0px"
   viewBox="0 0 1920 1080"
   style="enable-background:new 0 0 1920 1080;"
   xml:space="preserve"
   id="svg280"
   sodipodi:docname="pelleteuse.svg"
   inkscape:export-filename="C:\Users\Acs\OneDrive\Bureau\STAGE\images\pelleteuse.png"
   inkscape:export-xdpi="96"
   inkscape:export-ydpi="96"
   inkscape:version="1.1 (c68e22c387, 2021-05-23)"
   xmlns:inkscape="http://www.inkscape.org/namespaces/inkscape"
   xmlns:sodipodi="http://sodipodi.sourceforge.net/DTD/sodipodi-0.dtd"
   xmlns="http://www.w3.org/2000/svg"
   xmlns:svg="http://www.w3.org/2000/svg"><defs
   id="defs284" /><sodipodi:namedview
   id="namedview282"
   pagecolor="#ffffff"
   bordercolor="#666666"
   borderopacity="1.0"
   inkscape:pageshadow="2"
   inkscape:pageopacity="0.0"
   inkscape:pagecheckerboard="0"
   showgrid="false"
   inkscape:zoom="0.47407407"
   inkscape:cx="960.82031"
   inkscape:cy="538.94531"
   inkscape:window-width="1920"
   inkscape:window-height="1009"
   inkscape:window-x="1358"
   inkscape:window-y="-8"
   inkscape:window-maximized="1"
   inkscape:current-layer="svg280" />
<style
   type="text/css"
   id="style2">
	.st0{fill:#1A3B4B;}
	.st1{fill:#0C1216;stroke:#0C1216;stroke-width:9;stroke-miterlimit:10;}
	.st2{fill:#0C1216;}
	.st3{fill:none;stroke:#132F3E;stroke-width:6;stroke-miterlimit:10;}
	.st4{fill:#1E4152;}
	.st5{fill:#132F3E;}
	.st6{fill:#1D3D50;}
	.st7{fill:#001620;}
	.st8{fill:#183846;}
	.st9{fill:#FC5A00;}
	.st10{fill:#082C3A;}
	.st11{fill:#B59E00;stroke:#E0AA00;stroke-width:11;stroke-linecap:round;stroke-miterlimit:10;}
	.st12{opacity:0.8;fill:none;stroke:#121516;stroke-width:7;stroke-linecap:round;stroke-miterlimit:10;}
	.st13{fill:none;stroke:#000304;stroke-width:9;stroke-miterlimit:10;}
	.st14{fill:#F97600;}
	.st15{fill:#1F261E;}
	.st16{fill:url(#SVGID_1_);}
	.st17{fill:url(#SVGID_00000083067667096261309160000014570017331956428421_);}
	.st18{fill:#FFAF00;}
	.st19{fill:#011523;}
	.st20{fill:#05262F;}
	.st21{fill:none;stroke:#000304;stroke-width:3;stroke-miterlimit:10;}
	.st22{fill:none;stroke:#000304;stroke-width:10;stroke-miterlimit:10;}
</style>
<g
   id="Слой_11">
	<rect
   x="967.46"
   y="724.01"
   class="st0"
   width="393.36"
   height="76.04"
   id="rect4" />
</g>
<g
   id="Слой_10">
	<rect
   x="1012.8"
   y="710.85"
   class="st0"
   width="133.07"
   height="17.55"
   id="rect7" />
</g>
<g
   id="гусеница_1_">
	<g
   id="гусеница">
		<path
   class="st1"
   d="M1530.13,952.86H789.39c-29.53,0-53.7-24.16-53.7-53.7v-59.3c0-29.54,24.17-53.7,53.7-53.7h740.74    c29.53,0,53.7,24.16,53.7,53.7v59.3C1583.83,928.7,1559.66,952.86,1530.13,952.86z"
   id="path10" />
		<rect
   x="786.87"
   y="768.61"
   class="st2"
   width="36.56"
   height="19.01"
   id="rect12" />
		<rect
   x="878.26"
   y="767.88"
   class="st2"
   width="36.56"
   height="19.01"
   id="rect14" />
		<rect
   x="967.46"
   y="767.88"
   class="st2"
   width="36.56"
   height="19.01"
   id="rect16" />
		<rect
   x="1056.67"
   y="767.88"
   class="st2"
   width="36.56"
   height="19.01"
   id="rect18" />
		<rect
   x="1145.87"
   y="767.88"
   class="st2"
   width="36.56"
   height="19.01"
   id="rect20" />
		<rect
   x="1235.07"
   y="767.88"
   class="st2"
   width="36.56"
   height="19.01"
   id="rect22" />
		<rect
   x="1324.27"
   y="767.88"
   class="st2"
   width="36.56"
   height="19.01"
   id="rect24" />
		<rect
   x="1413.47"
   y="767.88"
   class="st2"
   width="36.56"
   height="19.01"
   id="rect26" />
		
			<rect
   x="1502.67"
   y="767.88"
   transform="matrix(0.9839 0.1789 -0.1789 0.9839 163.5959 -259.5365)"
   class="st2"
   width="36.56"
   height="19.01"
   id="rect28" />
		
			<rect
   x="1557.31"
   y="798.05"
   transform="matrix(0.6681 0.7441 -0.7441 0.6681 1123.8217 -904.3272)"
   class="st2"
   width="36.56"
   height="19.01"
   id="rect30" />
		
			<rect
   x="1578.71"
   y="857.08"
   transform="matrix(0.0185 0.9998 -0.9998 0.0185 2433.8367 -746.1874)"
   class="st2"
   width="36.56"
   height="19.01"
   id="rect32" />
		
			<rect
   x="1562.16"
   y="916.72"
   transform="matrix(-0.5661 0.8244 -0.8244 -0.5661 3238.6187 147.6717)"
   class="st2"
   width="36.56"
   height="19.01"
   id="rect34" />
		
			<rect
   x="1501.21"
   y="947.74"
   transform="matrix(-1 3.127013e-03 -3.127013e-03 -1 3041.9614 1909.7426)"
   class="st2"
   width="36.56"
   height="19.01"
   id="rect36" />
		
			<rect
   x="1433.94"
   y="949.21"
   transform="matrix(-1 3.127013e-03 -3.127013e-03 -1 2907.4336 1912.8774)"
   class="st2"
   width="36.56"
   height="19.01"
   id="rect38" />
		
			<rect
   x="1350.59"
   y="949.21"
   transform="matrix(-1 3.127013e-03 -3.127013e-03 -1 2740.7302 1913.1382)"
   class="st2"
   width="36.56"
   height="19.01"
   id="rect40" />
		
			<rect
   x="1267.24"
   y="949.21"
   transform="matrix(-1 3.127013e-03 -3.127013e-03 -1 2574.0269 1913.3988)"
   class="st2"
   width="36.56"
   height="19.01"
   id="rect42" />
		
			<rect
   x="1183.89"
   y="949.21"
   transform="matrix(-1 3.127013e-03 -3.127013e-03 -1 2407.3235 1913.6594)"
   class="st2"
   width="36.56"
   height="19.01"
   id="rect44" />
		
			<rect
   x="1100.53"
   y="949.21"
   transform="matrix(-1 3.127013e-03 -3.127013e-03 -1 2240.6201 1913.92)"
   class="st2"
   width="36.56"
   height="19.01"
   id="rect46" />
		
			<rect
   x="1017.18"
   y="949.21"
   transform="matrix(-1 3.127013e-03 -3.127013e-03 -1 2073.9167 1914.1807)"
   class="st2"
   width="36.56"
   height="19.01"
   id="rect48" />
		
			<rect
   x="933.83"
   y="949.21"
   transform="matrix(-1 3.127013e-03 -3.127013e-03 -1 1907.2134 1914.4413)"
   class="st2"
   width="36.56"
   height="19.01"
   id="rect50" />
		
			<rect
   x="850.48"
   y="949.21"
   transform="matrix(-1 3.127013e-03 -3.127013e-03 -1 1740.51 1914.702)"
   class="st2"
   width="36.56"
   height="19.01"
   id="rect52" />
		
			<rect
   x="767.13"
   y="949.21"
   transform="matrix(-0.9756 -0.2197 0.2197 -0.9756 1341.0173 2066.5417)"
   class="st2"
   width="36.56"
   height="19.01"
   id="rect54" />
		
			<rect
   x="714.87"
   y="814.14"
   transform="matrix(0.4841 -0.875 0.875 0.4841 -342.4582 1066.4592)"
   class="st2"
   width="36.56"
   height="19.01"
   id="rect56" />
		
			<rect
   x="713.41"
   y="903.87"
   transform="matrix(-0.3162 -0.9487 0.9487 -0.3162 96.4997 1896.3173)"
   class="st2"
   width="36.56"
   height="19.01"
   id="rect58" />
		<rect
   x="939.68"
   y="898.03"
   class="st0"
   width="482.56"
   height="23.4"
   id="rect60" />
		<circle
   class="st3"
   cx="964.54"
   cy="804.44"
   r="20.47"
   id="circle62" />
		<circle
   class="st3"
   cx="954.3"
   cy="921.42"
   r="14.62"
   id="circle64" />
		<circle
   class="st3"
   cx="1024.49"
   cy="921.42"
   r="14.62"
   id="circle66" />
		<circle
   class="st3"
   cx="1094.69"
   cy="921.42"
   r="14.62"
   id="circle68" />
		<circle
   class="st3"
   cx="1164.88"
   cy="921.42"
   r="14.62"
   id="circle70" />
		<circle
   class="st3"
   cx="1235.07"
   cy="921.42"
   r="14.62"
   id="circle72" />
		<circle
   class="st3"
   cx="1305.26"
   cy="921.42"
   r="14.62"
   id="circle74" />
		<circle
   class="st3"
   cx="1375.45"
   cy="921.42"
   r="14.62"
   id="circle76" />
		<path
   class="st4"
   d="M1443.88,884.86H893.19c-6.6,0-12-5.4-12-12v-11.1c0-6.6,5.4-12,12-12h550.69c6.6,0,12,5.4,12,12v11.1    C1455.88,879.46,1450.48,884.86,1443.88,884.86z"
   id="path78" />
		<path
   class="st4"
   d="M1425.98,835.15H998.82c-3.58,0-6.5-2.92-6.5-6.5v-6.01c0-3.58,2.92-6.5,6.5-6.5h427.16    c3.58,0,6.5,2.92,6.5,6.5v6.01C1432.48,832.22,1429.56,835.15,1425.98,835.15z"
   id="path80" />
	</g>
</g>
<g
   id="к_п">
	<g
   id="колесо">
		<circle
   class="st5"
   cx="822.7"
   cy="868.78"
   r="73.12"
   id="circle84" />
		<circle
   class="st6"
   cx="822.7"
   cy="868.78"
   r="52.64"
   id="circle86" />
		<circle
   class="st7"
   cx="822.7"
   cy="868.78"
   r="42.41"
   id="circle88" />
		<circle
   class="st4"
   cx="793.45"
   cy="854.16"
   r="5.85"
   id="circle90" />
		<circle
   class="st4"
   cx="821.23"
   cy="835.15"
   r="5.85"
   id="circle92" />
		<circle
   class="st4"
   cx="850.48"
   cy="854.16"
   r="5.85"
   id="circle94" />
		<circle
   class="st4"
   cx="849.02"
   cy="884.86"
   r="5.85"
   id="circle96" />
		<circle
   class="st4"
   cx="821.23"
   cy="899.49"
   r="5.85"
   id="circle98" />
		<circle
   class="st4"
   cx="793.45"
   cy="881.94"
   r="5.85"
   id="circle100" />
		<circle
   class="st4"
   cx="822.7"
   cy="868.78"
   r="14.62"
   id="circle102" />
	</g>
</g>
<g
   id="к_з">
	<g
   id="колесо_1_">
		<circle
   class="st5"
   cx="1505.6"
   cy="867.32"
   r="73.12"
   id="circle106" />
		<circle
   class="st6"
   cx="1505.6"
   cy="867.32"
   r="52.64"
   id="circle108" />
		<circle
   class="st7"
   cx="1505.6"
   cy="867.32"
   r="42.41"
   id="circle110" />
		<circle
   class="st4"
   cx="1476.35"
   cy="852.69"
   r="5.85"
   id="circle112" />
		<circle
   class="st4"
   cx="1504.13"
   cy="833.68"
   r="5.85"
   id="circle114" />
		<circle
   class="st4"
   cx="1533.38"
   cy="852.69"
   r="5.85"
   id="circle116" />
		<circle
   class="st4"
   cx="1531.92"
   cy="883.4"
   r="5.85"
   id="circle118" />
		<circle
   class="st4"
   cx="1504.13"
   cy="898.03"
   r="5.85"
   id="circle120" />
		<circle
   class="st4"
   cx="1476.35"
   cy="880.48"
   r="5.85"
   id="circle122" />
		<circle
   class="st4"
   cx="1505.6"
   cy="867.32"
   r="14.62"
   id="circle124" />
	</g>
</g>
<g
   id="ковш_1_">
	<path
   id="ковш"
   class="st8"
   d="M333.55,539.03L261.9,707.19l119.91,49.72l210.57-77.5l-19.01-11.7l-49.72,5.85   c0,0-141.84-64.34-146.23-114.06C373.03,509.78,333.55,539.03,333.55,539.03z" />
</g>
<g
   id="колено_1_1_">
	<path
   id="колено_1"
   class="st9"
   d="M888.5,394.99l109.67,168.17l138.92-74.58c15.13-5.53-40.82-65.76-51.33-77.97   L970.39,292.63c0,0-59.95-8.77-76.04,26.32S881.19,345.27,888.5,394.99z" />
</g>
<g
   id="колено_2_1_">
	<g
   id="колено_2">
		<path
   class="st9"
   d="M852.38,285.73l-132.98-81.69c-5.62-3.45-7.4-10.88-3.94-16.51l8.1-13.19c3.45-5.62,10.88-7.4,16.51-3.94    l132.98,81.69c5.62,3.45,7.4,10.88,3.94,16.51l-8.1,13.19C865.43,287.41,858,289.19,852.38,285.73z"
   id="path132" />
		
			<rect
   x="547.81"
   y="136.63"
   transform="matrix(0.888 0.4599 -0.4599 0.888 138.2848 -279.7549)"
   class="st10"
   width="191.02"
   height="14.62"
   id="rect134" />
		<path
   class="st9"
   d="M577.03,206.35l372.89,78.96c9.11,3.2,28.05,23.06,33.38,37.2l-42.41,78.96    c-11.71,4.08-41.82,1.09-50.92-2.11L547.78,267.77c-9.11-3.2-64.61-30.38-61.42-39.48l8.77-21.93    C498.33,197.24,567.92,203.16,577.03,206.35z"
   id="path136" />
		<circle
   class="st11"
   cx="880.09"
   cy="342.71"
   r="12.06"
   id="circle138" />
		<line
   class="st11"
   x1="612.12"
   y1="231.21"
   x2="887.04"
   y2="299.94"
   id="line140" />
		<path
   class="st12"
   d="M881.92,343.08c0,0,92.13,0,27.78-64.34c0,0-5.27-23.87-299.77-95.05c-1.55-0.37-14.75-4.99-16.09-5.85    c-15.51-9.98-115.27-69.59-130.15,27.78"
   id="path142" />
	</g>
</g>
<g
   id="колено_3_1_">
	<g
   id="колено_3">
		<ellipse
   class="st9"
   cx="318.2"
   cy="536.1"
   rx="35.1"
   ry="28.52"
   id="ellipse146" />
		<path
   class="st9"
   d="M585.8,71.09v165.24L373.76,591.67l-27.78-27.78l84.81-317.32l-1.46-102.36    C429.33,144.2,464.43,87.17,585.8,71.09z"
   id="path148" />
		
			<rect
   x="341.4"
   y="344.84"
   transform="matrix(0.9478 0.3188 -0.3188 0.9478 157.3087 -88.3988)"
   class="st10"
   width="14.62"
   height="183.07"
   id="rect150" />
		<path
   class="st9"
   d="M451.27,172.72c0,0-33.63-2.92-33.63,7.31s-59.95,172.55-55.57,179.86c4.39,7.31,16.09,14.62,24.86,5.85    c8.77-8.77,48.26-112.6,48.26-112.6L451.27,172.72z"
   id="path152" />
		<circle
   class="st10"
   cx="314.54"
   cy="534.64"
   r="15.35"
   id="circle154" />
		<ellipse
   class="st11"
   cx="498.06"
   cy="203.43"
   rx="9.51"
   ry="10.97"
   id="ellipse156" />
		<ellipse
   class="st11"
   cx="416.17"
   cy="427.16"
   rx="9.51"
   ry="10.97"
   id="ellipse158" />
		<path
   class="st12"
   d="M493.67,201.96c0,0-209.39,23.89-64.72,133.66c6.24,4.74,10.51,11.62,11.88,19.34    c3.86,21.73,7.51,64.62-21.74,72.2"
   id="path160" />
	</g>
</g>
<g
   id="кабина_1_">
	<g
   id="кабина">
		<rect
   x="996.71"
   y="683.07"
   class="st0"
   width="162.32"
   height="27.78"
   id="rect164" />
		<line
   class="st13"
   x1="967.46"
   y1="688.18"
   x2="1555.31"
   y2="689.65"
   id="line166" />
		<polygon
   class="st14"
   points="970.39,403.76 1204.36,403.76 1233.61,488.58 1235.07,681.6 967.46,681.6 944.07,656.74     944.07,449.1   "
   id="polygon168" />
		<polygon
   class="st15"
   points="983.55,424.24 1188.27,424.24 1213.13,504.66 1097.61,609.95 968.93,609.95 967.46,454.94   "
   id="polygon170" />
		<linearGradient
   id="SVGID_1_"
   gradientUnits="userSpaceOnUse"
   x1="1080.8517"
   y1="540.8788"
   x2="994.8677"
   y2="495.2546">
			<stop
   offset="0"
   style="stop-color:#00C6B9"
   id="stop172" />
			<stop
   offset="0.0255"
   style="stop-color:#0BC8B9"
   id="stop174" />
			<stop
   offset="0.2896"
   style="stop-color:#7DDDBB"
   id="stop176" />
			<stop
   offset="0.4714"
   style="stop-color:#C5EABC"
   id="stop178" />
			<stop
   offset="0.5554"
   style="stop-color:#E1EFBD"
   id="stop180" />
			<stop
   offset="0.5968"
   style="stop-color:#D8EEBD"
   id="stop182" />
			<stop
   offset="0.6646"
   style="stop-color:#BFEBBF"
   id="stop184" />
			<stop
   offset="0.7505"
   style="stop-color:#97E6C1"
   id="stop186" />
			<stop
   offset="0.8511"
   style="stop-color:#5FDFC3"
   id="stop188" />
			<stop
   offset="0.9628"
   style="stop-color:#19D7C7"
   id="stop190" />
			<stop
   offset="1"
   style="stop-color:#00D4C8"
   id="stop192" />
		</linearGradient>
		<polygon
   class="st16"
   points="983.55,596.79 1082.99,596.79 1082.99,434.47 996.71,434.47 983.55,457.87   "
   id="polygon195" />
		
			<linearGradient
   id="SVGID_00000129899159147185364180000015404397542008666245_"
   gradientUnits="userSpaceOnUse"
   x1="1150.1348"
   y1="516.7016"
   x2="1091.6414"
   y2="485.6643">
			<stop
   offset="0"
   style="stop-color:#00C6B9"
   id="stop197" />
			<stop
   offset="0.0255"
   style="stop-color:#0BC8B9"
   id="stop199" />
			<stop
   offset="0.2896"
   style="stop-color:#7DDDBB"
   id="stop201" />
			<stop
   offset="0.4714"
   style="stop-color:#C5EABC"
   id="stop203" />
			<stop
   offset="0.5554"
   style="stop-color:#E1EFBD"
   id="stop205" />
			<stop
   offset="0.5968"
   style="stop-color:#D8EEBD"
   id="stop207" />
			<stop
   offset="0.6646"
   style="stop-color:#BFEBBF"
   id="stop209" />
			<stop
   offset="0.7505"
   style="stop-color:#97E6C1"
   id="stop211" />
			<stop
   offset="0.8511"
   style="stop-color:#5FDFC3"
   id="stop213" />
			<stop
   offset="0.9628"
   style="stop-color:#19D7C7"
   id="stop215" />
			<stop
   offset="1"
   style="stop-color:#00D4C8"
   id="stop217" />
		</linearGradient>
		<polygon
   style="fill:url(#SVGID_00000129899159147185364180000015404397542008666245_);"
   points="1097.61,434.47 1176.58,434.47     1189.74,481.27 1163.41,490.04 1163.41,532.45 1097.61,585.09   "
   id="polygon220" />
		<path
   class="st18"
   d="M1176.24,516.73c-7.28-4.43-9.59-13.92-5.16-21.2c4.43-7.28,13.92-9.59,21.2-5.16"
   id="path222" />
		<polygon
   class="st19"
   points="1167.8,609.95 1180.96,609.95 1180.96,620.19 1220.44,620.19 1220.44,609.95 1229.22,609.95     1229.22,639.2 1167.8,639.2   "
   id="polygon224" />
		<polygon
   class="st20"
   points="1299.41,453.48 1508.52,453.48 1508.52,509.05 1239.45,497.35   "
   id="polygon226" />
		<path
   class="st14"
   d="M1567.01,596.79c2.92,14.62,4.39,26.01,4.39,38.02c0,27.04-10.24,46.79-10.24,46.79h-321.71V497.35h321.71    C1561.16,497.35,1567.01,548.83,1567.01,596.79z"
   id="path228" />
		<line
   class="st21"
   x1="1299.41"
   y1="535.37"
   x2="1314.03"
   y2="516.36"
   id="line230" />
		<line
   class="st21"
   x1="1302.33"
   y1="560.23"
   x2="1316.96"
   y2="541.22"
   id="line232" />
		<line
   class="st21"
   x1="1302.33"
   y1="560.23"
   x2="1316.96"
   y2="541.22"
   id="line234" />
		<line
   class="st21"
   x1="1321.34"
   y1="563.16"
   x2="1335.97"
   y2="544.15"
   id="line236" />
		<line
   class="st21"
   x1="1338.89"
   y1="563.16"
   x2="1353.52"
   y2="544.15"
   id="line238" />
		<line
   class="st21"
   x1="1359.36"
   y1="563.16"
   x2="1373.99"
   y2="544.15"
   id="line240" />
		<line
   class="st21"
   x1="1378.37"
   y1="563.16"
   x2="1393"
   y2="544.15"
   id="line242" />
		<line
   class="st21"
   x1="1401.77"
   y1="563.16"
   x2="1416.39"
   y2="544.15"
   id="line244" />
		<line
   class="st21"
   x1="1420.78"
   y1="564.62"
   x2="1435.4"
   y2="545.61"
   id="line246" />
		<line
   class="st21"
   x1="1438.33"
   y1="564.62"
   x2="1452.95"
   y2="545.61"
   id="line248" />
		<line
   class="st21"
   x1="1457.34"
   y1="564.62"
   x2="1471.96"
   y2="545.61"
   id="line250" />
		<line
   class="st21"
   x1="1476.35"
   y1="564.62"
   x2="1490.97"
   y2="545.61"
   id="line252" />
		<line
   class="st21"
   x1="1493.9"
   y1="564.62"
   x2="1508.52"
   y2="545.61"
   id="line254" />
		<line
   class="st21"
   x1="1321.34"
   y1="535.37"
   x2="1335.97"
   y2="516.36"
   id="line256" />
		<line
   class="st21"
   x1="1343.28"
   y1="535.37"
   x2="1357.9"
   y2="516.36"
   id="line258" />
		<line
   class="st21"
   x1="1365.21"
   y1="535.37"
   x2="1379.84"
   y2="516.36"
   id="line260" />
		<line
   class="st21"
   x1="1387.15"
   y1="535.37"
   x2="1401.77"
   y2="516.36"
   id="line262" />
		<line
   class="st21"
   x1="1409.08"
   y1="535.37"
   x2="1423.71"
   y2="516.36"
   id="line264" />
		<line
   class="st21"
   x1="1431.02"
   y1="535.37"
   x2="1445.64"
   y2="516.36"
   id="line266" />
		<line
   class="st21"
   x1="1452.95"
   y1="535.37"
   x2="1467.58"
   y2="516.36"
   id="line268" />
		<line
   class="st21"
   x1="1474.89"
   y1="535.37"
   x2="1489.51"
   y2="516.36"
   id="line270" />
		<line
   class="st21"
   x1="1496.82"
   y1="535.37"
   x2="1511.45"
   y2="516.36"
   id="line272" />
		<line
   class="st22"
   x1="1476.35"
   y1="646.51"
   x2="1543.62"
   y2="646.51"
   id="line274" />
		<line
   class="st13"
   x1="1238.72"
   y1="498.81"
   x2="1238.72"
   y2="683.07"
   id="line276" />
	</g>
</g>
</svg>
